<svg xmlns="http://www.w3.org/2000/svg" viewBox="0 0 680 400" style="width: 100%; height: auto;">
  <defs>
    <radialGradient id="bgGlow" cx="60%" cy="50%" r="65%">
      <stop offset="0%" stop-color="#1a1e28" stop-opacity="0.45"/>
      <stop offset="100%" stop-color="#0c0f12" stop-opacity="0"/>
    </radialGradient>
    <linearGradient id="mainLine" x1="0%" y1="0%" x2="100%" y2="0%">
      <stop offset="0%" stop-color="#3a2a10"/>
      <stop offset="35%" stop-color="#b89354"/>
      <stop offset="65%" stop-color="#f5d796"/>
      <stop offset="100%" stop-color="#7a5c2d"/>
    </linearGradient>
    <linearGradient id="topFade" x1="0%" y1="0%" x2="0%" y2="100%">
      <stop offset="0%" stop-color="#0c0f12" stop-opacity="1"/>
      <stop offset="100%" stop-color="#0c0f12" stop-opacity="0"/>
    </linearGradient>
    <path id="billTrack" d="M 80,300 C 140,270 200,250 280,240 C 360,230 420,190 500,175 C 560,165 610,140 650,110" fill="none"/>
    <style>.node-glow{filter:drop-shadow(0 0 4px rgba(240,208,128,.5))}.head-glow{filter:drop-shadow(0 0 5px #fff)}</style>
  </defs>
  <rect width="680" height="400" fill="url(#bgGlow)"/>
  
  <!-- Thematic Background: Credit Card, Coins, Vault -->
  <g opacity="0.25" fill="none" stroke="#7a5c2d" stroke-width="1.5">
    <!-- Credit Card -->
    <rect x="140" y="120" width="180" height="110" rx="12" />
    <path d="M140,150 H320" stroke-width="16" opacity="0.3" />
    <rect x="160" y="180" width="35" height="25" rx="4" />
    <path d="M210,195 H290 M210,210 H250" stroke-linecap="round" />

    <!-- Coin Stack -->
    <ellipse cx="460" cy="220" rx="40" ry="15" />
    <path d="M420,220 V240 A40,15 0 0,0 500,240 V220" />
    <ellipse cx="460" cy="200" rx="40" ry="15" />
    <path d="M420,200 V220 A40,15 0 0,0 500,220 V200" />
    <ellipse cx="460" cy="180" rx="40" ry="15" />
    <path d="M420,180 V200 A40,15 0 0,0 500,200 V180" />
    <ellipse cx="460" cy="160" rx="40" ry="15" />
    <path d="M420,160 V180 A40,15 0 0,0 500,180 V160" />
    <ellipse cx="460" cy="140" rx="40" ry="15" />
    <path d="M420,140 V160 A40,15 0 0,0 500,160 V140" />
    
    <!-- Floating Coins -->
    <ellipse cx="540" cy="110" rx="20" ry="8" />
    <path d="M520,110 V118 A20,8 0 0,0 560,118 V110" />
    
    <ellipse cx="360" cy="150" rx="15" ry="6" opacity="0.6" />
    <path d="M345,150 V156 A15,6 0 0,0 375,156 V150" opacity="0.6" />
  </g>

  <use href="#billTrack" stroke="#f5d796" stroke-width="11" opacity="0.06" stroke-linecap="round"/>
  <use href="#billTrack" stroke="#3a2a10" stroke-width="2" stroke-linecap="round"/>
  <use href="#billTrack" stroke="url(#mainLine)" stroke-width="2.5" stroke-linecap="round"/>
  <g>
    <circle cx="0" cy="0" r="3.5" fill="#fff" class="head-glow"><animateMotion dur="4s" repeatCount="indefinite"><mpath href="#billTrack"/></animateMotion></circle>
    <circle cx="0" cy="0" r="2" fill="#f5d796" opacity="0.5"><animateMotion dur="4s" begin="-0.35s" repeatCount="indefinite"><mpath href="#billTrack"/></animateMotion></circle>
  </g>
  <g transform="translate(200,255)"><circle cx="0" cy="0" r="13" fill="none" stroke="#b89354"><animate attributeName="r" values="9;21" dur="2s" repeatCount="indefinite"/><animate attributeName="opacity" values="0.8;0" dur="2s" repeatCount="indefinite"/></circle><circle cx="0" cy="0" r="7" fill="#0c0f12" stroke="#c9a050" stroke-width="1.5"/><circle cx="0" cy="0" r="1.8" fill="#f0d080" class="node-glow"/></g>
  <g transform="translate(360,235)"><circle cx="0" cy="0" r="17" fill="none" stroke="#b89354"><animate attributeName="r" values="12;26" dur="2s" begin="0.7s" repeatCount="indefinite"/><animate attributeName="opacity" values="0.8;0" dur="2s" begin="0.7s" repeatCount="indefinite"/></circle><circle cx="0" cy="0" r="10" fill="#0c0f12" stroke="#c9a050" stroke-width="1.5"/><circle cx="0" cy="0" r="2.6" fill="#f0d080" class="node-glow"/></g>
  <g transform="translate(540,185)"><circle cx="0" cy="0" r="22" fill="none" stroke="#b89354"><animate attributeName="r" values="15;32" dur="2s" begin="1.1s" repeatCount="indefinite"/><animate attributeName="opacity" values="0.8;0" dur="2s" begin="1.1s" repeatCount="indefinite"/></circle><circle cx="0" cy="0" r="11" fill="#0c0f12" stroke="#f0d080" stroke-width="2"/><circle cx="0" cy="0" r="3" fill="#f0d080"/></g>
  <rect width="680" height="40" fill="url(#topFade)"/>
</svg>