<svg xmlns="http://www.w3.org/2000/svg" viewBox="0 0 680 400" style="width: 100%; height: auto;">
  <defs>
    <radialGradient id="bgGlow" cx="40%" cy="50%" r="65%">
      <stop offset="0%" stop-color="#1a2030" stop-opacity="0.45"/>
      <stop offset="100%" stop-color="#0c0f12" stop-opacity="0"/>
    </radialGradient>
    <linearGradient id="mainLine" x1="0%" y1="0%" x2="100%" y2="0%">
      <stop offset="0%" stop-color="#3a2a10"/>
      <stop offset="50%" stop-color="#b89354"/>
      <stop offset="100%" stop-color="#f5d796"/>
    </linearGradient>
    <linearGradient id="topFade" x1="0%" y1="0%" x2="0%" y2="100%">
      <stop offset="0%" stop-color="#0c0f12" stop-opacity="1"/>
      <stop offset="100%" stop-color="#0c0f12" stop-opacity="0"/>
    </linearGradient>
    <path id="formTrack" d="M 80,270 C 150,230 210,250 290,210 C 370,170 430,200 500,165 C 560,135 610,150 650,110" fill="none"/>
    <style>.node-glow{filter:drop-shadow(0 0 4px rgba(240,208,128,.5))}.head-glow{filter:drop-shadow(0 0 5px #fff)}</style>
  </defs>
  <rect width="680" height="400" fill="url(#bgGlow)"/>
  
  <!-- Thematic Background: Funnel, Data Intake -->
  <g opacity="0.25" fill="none" stroke="#7a5c2d" stroke-width="1.5">
    <!-- Funnel Top -->
    <ellipse cx="340" cy="100" rx="120" ry="30" />
    <path d="M220,100 C220,100 220,160 300,220 V320 H380 V220 C460,160 460,100 460,100" />
    
    <!-- Funnel Rings -->
    <ellipse cx="340" cy="150" rx="80" ry="20" />
    <ellipse cx="340" cy="200" rx="45" ry="12" />
    <ellipse cx="340" cy="250" rx="40" ry="10" />
    
    <!-- Data points falling in -->
    <circle cx="340" cy="60" r="6" fill="#7a5c2d" />
    <circle cx="280" cy="80" r="4" fill="#7a5c2d" />
    <circle cx="400" cy="70" r="5" fill="#7a5c2d" />
    <circle cx="310" cy="120" r="3" fill="#7a5c2d" />
    <circle cx="360" cy="140" r="4" fill="#7a5c2d" />
    <circle cx="340" cy="180" r="5" fill="#7a5c2d" />
    <circle cx="340" cy="280" r="6" fill="#7a5c2d" />
    
    <!-- Intake lines -->
    <path d="M340,40 V80 M280,60 V90 M400,50 V80" stroke-dasharray="2 4" />
  </g>

  <use href="#formTrack" stroke="#f5d796" stroke-width="10" opacity="0.06" stroke-linecap="round"/>
  <use href="#formTrack" stroke="#3a2a10" stroke-width="2" stroke-linecap="round"/>
  <use href="#formTrack" stroke="url(#mainLine)" stroke-width="2.5" stroke-linecap="round"/>
  <g>
    <circle cx="0" cy="0" r="3.5" fill="#fff" class="head-glow"><animateMotion dur="4.3s" repeatCount="indefinite"><mpath href="#formTrack"/></animateMotion></circle>
    <circle cx="0" cy="0" r="2" fill="#f5d796" opacity="0.5"><animateMotion dur="4.3s" begin="-0.3s" repeatCount="indefinite"><mpath href="#formTrack"/></animateMotion></circle>
  </g>
  <g transform="translate(200,240)"><circle cx="0" cy="0" r="12" fill="none" stroke="#b89354"><animate attributeName="r" values="8;20" dur="2s" repeatCount="indefinite"/><animate attributeName="opacity" values="0.8;0" dur="2s" repeatCount="indefinite"/></circle><circle cx="0" cy="0" r="7" fill="#0c0f12" stroke="#c9a050" stroke-width="1.5"/><circle cx="0" cy="0" r="1.8" fill="#f0d080" class="node-glow"/></g>
  <g transform="translate(350,205)"><circle cx="0" cy="0" r="15" fill="none" stroke="#b89354"><animate attributeName="r" values="10;23" dur="2s" begin="0.5s" repeatCount="indefinite"/><animate attributeName="opacity" values="0.8;0" dur="2s" begin="0.5s" repeatCount="indefinite"/></circle><circle cx="0" cy="0" r="8" fill="#0c0f12" stroke="#c9a050" stroke-width="1.5"/><circle cx="0" cy="0" r="2.2" fill="#f0d080" class="node-glow"/></g>
  <g transform="translate(520,170)"><circle cx="0" cy="0" r="18" fill="none" stroke="#b89354"><animate attributeName="r" values="12;28" dur="2s" begin="1s" repeatCount="indefinite"/><animate attributeName="opacity" values="0.8;0" dur="2s" begin="1s" repeatCount="indefinite"/></circle><circle cx="0" cy="0" r="10" fill="#0c0f12" stroke="#f0d080" stroke-width="2"/><circle cx="0" cy="0" r="2.8" fill="#f0d080"/></g>
  <rect width="680" height="40" fill="url(#topFade)"/>
</svg>