<svg xmlns="http://www.w3.org/2000/svg" viewBox="0 0 680 400" style="background-color: #050507; width: 100%; height: auto;">
  <defs>
    <radialGradient id="bgGlow" cx="55%" cy="40%" r="70%">
      <stop offset="0%" stop-color="#1e1205" stop-opacity="0.4"/>
      <stop offset="100%" stop-color="#050507" stop-opacity="0"/>
    </radialGradient>
    
    <linearGradient id="dropFade" x1="0%" y1="0%" x2="0%" y2="100%">
      <stop offset="0%" stop-color="#b89354" stop-opacity="0.35"/>
      <stop offset="100%" stop-color="#b89354" stop-opacity="0"/>
    </linearGradient>
    
    <linearGradient id="mainLine" x1="0%" y1="0%" x2="100%" y2="0%">
      <stop offset="0%" stop-color="#3a2a10"/>
      <stop offset="30%" stop-color="#b89354"/>
      <stop offset="70%" stop-color="#f5d796"/>
      <stop offset="100%" stop-color="#7a5c2d"/>
    </linearGradient>

    <linearGradient id="topFade" x1="0%" y1="0%" x2="0%" y2="100%">
      <stop offset="0%" stop-color="#050507" stop-opacity="1"/>
      <stop offset="100%" stop-color="#050507" stop-opacity="0"/>
    </linearGradient>

    <path id="cometTrack" d="M 80,320 C 119,296 164,246 210,240 C 256,234 266,303 310,290 C 354,277 384,186 430,175 C 476,164 498,249 540,235 C 582,221 620,131 640,105" fill="none" />

    <style>
      .node-glow { filter: drop-shadow(0 0 4px rgba(240, 208, 128, 0.5)); }
      .head-glow { filter: drop-shadow(0 0 5px #ffffff); }
    </style>
  </defs>

  <rect width="680" height="400" fill="url(#bgGlow)" />
  
  <circle cx="80" cy="120" r="35" fill="none" stroke="#b89354" opacity="0.04" stroke-width="1" />
  <circle cx="420" cy="60" r="75" fill="none" stroke="#b89354" opacity="0.04" stroke-width="1" />
  <circle cx="260" cy="-30" r="90" fill="none" stroke="#b89354" opacity="0.04" stroke-width="1" />

  <path d="M0,340 H680 M0,358 H680 M0,376 H680 M0,394 H680" stroke="#5a461e" stroke-width="0.5" opacity="0.12" />

  <path d="M80,326 V420 M210,248 V420 M310,296 V420 M430,184 V420 M540,242 V420 M640,116 V420" stroke="url(#dropFade)" stroke-width="1" />

  <path d="M 80,320 Q 195,330 310,290 T 540,235" stroke="#7a5c2d" stroke-width="1" stroke-dasharray="3 8" opacity="0.2" fill="none" />
  <path d="M 210,240 Q 320,180 430,175 T 640,105" stroke="#7a5c2d" stroke-width="1" stroke-dasharray="3 8" opacity="0.2" fill="none" />

  <use href="#cometTrack" stroke="#f5d796" stroke-width="14" opacity="0.07" stroke-linejoin="round" stroke-linecap="round" />
  <use href="#cometTrack" stroke="#3a2a10" stroke-width="2" stroke-linejoin="round" stroke-linecap="round" />
  <use href="#cometTrack" stroke="url(#mainLine)" stroke-width="2.5" stroke-linejoin="round" stroke-linecap="round" />

  <g>
    <circle cx="0" cy="0" r="1.5" fill="#f5d796" opacity="0.2">
      <animateMotion dur="4s" begin="-3.7s" repeatCount="indefinite"><mpath href="#cometTrack"/></animateMotion>
    </circle>
    <circle cx="0" cy="0" r="2" fill="#f5d796" opacity="0.4">
      <animateMotion dur="4s" begin="-3.8s" repeatCount="indefinite"><mpath href="#cometTrack"/></animateMotion>
    </circle>
    <circle cx="0" cy="0" r="2.5" fill="#f5d796" opacity="0.7">
      <animateMotion dur="4s" begin="-3.9s" repeatCount="indefinite"><mpath href="#cometTrack"/></animateMotion>
    </circle>
    <circle cx="0" cy="0" r="3.5" fill="#ffffff" class="head-glow">
      <animateMotion dur="4s" begin="0s" repeatCount="indefinite"><mpath href="#cometTrack"/></animateMotion>
    </circle>
  </g>

  <g>
    <circle cx="0" cy="0" r="1.5" fill="#f5d796" opacity="0.2">
      <animateMotion dur="4s" begin="-1.7s" repeatCount="indefinite"><mpath href="#cometTrack"/></animateMotion>
    </circle>
    <circle cx="0" cy="0" r="2" fill="#f5d796" opacity="0.4">
      <animateMotion dur="4s" begin="-1.8s" repeatCount="indefinite"><mpath href="#cometTrack"/></animateMotion>
    </circle>
    <circle cx="0" cy="0" r="2.5" fill="#f5d796" opacity="0.7">
      <animateMotion dur="4s" begin="-1.9s" repeatCount="indefinite"><mpath href="#cometTrack"/></animateMotion>
    </circle>
    <circle cx="0" cy="0" r="3.5" fill="#ffffff" class="head-glow">
      <animateMotion dur="4s" begin="-2s" repeatCount="indefinite"><mpath href="#cometTrack"/></animateMotion>
    </circle>
  </g>

  <g transform="translate(80, 320)">
    <circle cx="0" cy="0" r="16" fill="none" stroke="#b89354">
      <animate attributeName="r" values="12; 24" dur="2s" begin="0s" repeatCount="indefinite" />
      <animate attributeName="opacity" values="0.8; 0" dur="2s" begin="0s" repeatCount="indefinite" />
    </circle>
    <circle cx="0" cy="0" r="9" fill="#050507" stroke="#c9a050" stroke-width="1.5" />
    <circle cx="0" cy="0" r="2" fill="#f0d080" class="node-glow" />
  </g>
  
  <g transform="translate(210, 240)">
    <circle cx="0" cy="0" r="20" fill="none" stroke="#b89354">
      <animate attributeName="r" values="14; 28" dur="2s" begin="0.4s" repeatCount="indefinite" />
      <animate attributeName="opacity" values="0.8; 0" dur="2s" begin="0.4s" repeatCount="indefinite" />
    </circle>
    <circle cx="0" cy="0" r="11" fill="#050507" stroke="#c9a050" stroke-width="1.5" />
    <circle cx="0" cy="0" r="2.8" fill="#f0d080" class="node-glow" />
  </g>
  
  <g transform="translate(310, 290)">
    <circle cx="0" cy="0" r="14" fill="none" stroke="#b89354">
      <animate attributeName="r" values="10; 20" dur="2s" begin="0.8s" repeatCount="indefinite" />
      <animate attributeName="opacity" values="0.8; 0" dur="2s" begin="0.8s" repeatCount="indefinite" />
    </circle>
    <circle cx="0" cy="0" r="9" fill="#050507" stroke="#c9a050" stroke-width="1.5" />
    <circle cx="0" cy="0" r="2" fill="#f0d080" class="node-glow" />
  </g>
  
  <g transform="translate(430, 175)">
    <circle cx="0" cy="0" r="24" fill="none" stroke="#b89354">
      <animate attributeName="r" values="16; 32" dur="2s" begin="1.2s" repeatCount="indefinite" />
      <animate attributeName="opacity" values="0.8; 0" dur="2s" begin="1.2s" repeatCount="indefinite" />
    </circle>
    <circle cx="0" cy="0" r="12" fill="#050507" stroke="#c9a050" stroke-width="1.5" />
    <circle cx="0" cy="0" r="3.1" fill="#f0d080" class="node-glow" />
  </g>
  
  <g transform="translate(540, 235)">
    <circle cx="0" cy="0" r="18" fill="none" stroke="#b89354">
      <animate attributeName="r" values="12; 24" dur="2s" begin="1.6s" repeatCount="indefinite" />
      <animate attributeName="opacity" values="0.8; 0" dur="2s" begin="1.6s" repeatCount="indefinite" />
    </circle>
    <circle cx="0" cy="0" r="10" fill="#050507" stroke="#c9a050" stroke-width="1.5" />
    <circle cx="0" cy="0" r="2.4" fill="#f0d080" class="node-glow" />
  </g>
  
  <g transform="translate(640, 105)">
    <circle cx="0" cy="0" r="51.2" fill="none" stroke="#b89354" stroke-width="0.8" stroke-dasharray="4 6" opacity="0.25" />
    <circle cx="0" cy="0" r="32" fill="none" stroke="#b89354">
      <animate attributeName="r" values="24; 48" dur="2s" begin="0s" repeatCount="indefinite" />
      <animate attributeName="opacity" values="0.8; 0" dur="2s" begin="0s" repeatCount="indefinite" />
    </circle>
    <path d="M-57.6,0 H57.6 M0,-57.6 V57.6" stroke="#b89354" stroke-width="0.8" opacity="0.4" />
    <circle cx="0" cy="0" r="14" fill="#050507" stroke="#f0d080" stroke-width="2" class="node-glow" />
    <circle cx="0" cy="0" r="3.8" fill="#f0d080" />
  </g>

  <rect width="680" height="40" fill="url(#topFade)" />
</svg>
